<svg width="20" height="20" viewBox="0 0 20 20" fill="none" xmlns="http://www.w3.org/2000/svg">
<path d="M14.305 6.34325L11.6718 8.97652L12.6913 9.99609L15.3246 7.36282L14.305 6.34325Z" fill="#F2F2F2"/>
<path d="M8.97727 11.6765L6.34399 14.3098L7.36356 15.3293L9.99684 12.6961L8.97727 11.6765Z" fill="#F2F2F2"/>
<path d="M12.6296 4.67651L9.99634 7.30978L11.0159 8.32935L13.6492 5.69608L12.6296 4.67651Z" fill="#F2F2F2"/>
<path d="M7.30918 10.0027L4.6759 12.6359L5.69547 13.6555L8.32875 11.0222L7.30918 10.0027Z" fill="#F2F2F2"/>
<path d="M5.68754 6.3432L4.66797 7.36277L7.30125 9.99605L8.32081 8.97648L5.68754 6.3432Z" fill="#F2F2F2"/>
<path d="M7.36356 4.67474L6.34399 5.69431L8.97727 8.32758L9.99684 7.30801L7.36356 4.67474Z" fill="#F2F2F2"/>
<path d="M12.6913 9.99527L11.6718 11.0148L14.305 13.6481L15.3246 12.6285L12.6913 9.99527Z" fill="#F2F2F2"/>
<path d="M11.0232 11.6711L10.0037 12.6906L12.6369 15.3239L13.6565 14.3043L11.0232 11.6711Z" fill="#F2F2F2"/>
<path d="M13.6505 16.3486L12.6339 15.332L9.99909 17.9668L7.36425 15.332L6.34766 16.3486L9.99909 20L13.6505 16.3486Z" fill="white"/>
<path d="M4.66803 7.3652L3.65144 6.3486L0 10L3.65144 13.6515L4.66803 12.6349L2.03319 10L4.66803 7.3652Z" fill="white"/>
<path d="M16.3486 6.3486L15.332 7.3652L17.9669 10L15.332 12.6349L16.3486 13.6515L20.0001 10L16.3486 6.3486Z" fill="white"/>
<path d="M12.6339 4.66803L13.6505 3.65144L9.99909 0L6.34766 3.65144L7.36425 4.66803L9.99909 2.03319L12.6339 4.66803Z" fill="white"/>
</svg>
